<svg class="rich-terminal" viewBox="0 0 1726 977.1999999999999" xmlns="http://www.w3.org/2000/svg">
    <!-- Generated with Rich https://www.textualize.io -->
    <style>

    @font-face {
        font-family: "Fira Code";
        src: local("FiraCode-Regular"),
                url("https://cdnjs.cloudflare.com/ajax/libs/firacode/6.2.0/woff2/FiraCode-Regular.woff2") format("woff2"),
                url("https://cdnjs.cloudflare.com/ajax/libs/firacode/6.2.0/woff/FiraCode-Regular.woff") format("woff");
        font-style: normal;
        font-weight: 400;
    }
    @font-face {
        font-family: "Fira Code";
        src: local("FiraCode-Bold"),
                url("https://cdnjs.cloudflare.com/ajax/libs/firacode/6.2.0/woff2/FiraCode-Bold.woff2") format("woff2"),
                url("https://cdnjs.cloudflare.com/ajax/libs/firacode/6.2.0/woff/FiraCode-Bold.woff") format("woff");
        font-style: bold;
        font-weight: 700;
    }

    .terminal-1351270772-matrix {
        font-family: Fira Code, monospace;
        font-size: 20px;
        line-height: 24.4px;
        font-variant-east-asian: full-width;
    }

    .terminal-1351270772-title {
        font-size: 18px;
        font-weight: bold;
        font-family: arial;
    }

    .terminal-1351270772-r1 { fill: #c5c8c6 }
.terminal-1351270772-r2 { fill: #e0e0e0 }
.terminal-1351270772-r3 { fill: #a0a3a6 }
.terminal-1351270772-r4 { fill: #7f7f7f }
.terminal-1351270772-r5 { fill: #313131 }
.terminal-1351270772-r6 { fill: #0178d4 }
.terminal-1351270772-r7 { fill: #fea62b;font-weight: bold }
.terminal-1351270772-r8 { fill: #e0e0e0;font-weight: bold }
.terminal-1351270772-r9 { fill: #ffa62b;font-weight: bold }
.terminal-1351270772-r10 { fill: #495259 }
    </style>

    <defs>
    <clipPath id="terminal-1351270772-clip-terminal">
      <rect x="0" y="0" width="1707.0" height="926.1999999999999" />
    </clipPath>
    <clipPath id="terminal-1351270772-line-0">
    <rect x="0" y="1.5" width="1708" height="24.65"/>
            </clipPath>
<clipPath id="terminal-1351270772-line-1">
    <rect x="0" y="25.9" width="1708" height="24.65"/>
            </clipPath>
<clipPath id="terminal-1351270772-line-2">
    <rect x="0" y="50.3" width="1708" height="24.65"/>
            </clipPath>
<clipPath id="terminal-1351270772-line-3">
    <rect x="0" y="74.7" width="1708" height="24.65"/>
            </clipPath>
<clipPath id="terminal-1351270772-line-4">
    <rect x="0" y="99.1" width="1708" height="24.65"/>
            </clipPath>
<clipPath id="terminal-1351270772-line-5">
    <rect x="0" y="123.5" width="1708" height="24.65"/>
            </clipPath>
<clipPath id="terminal-1351270772-line-6">
    <rect x="0" y="147.9" width="1708" height="24.65"/>
            </clipPath>
<clipPath id="terminal-1351270772-line-7">
    <rect x="0" y="172.3" width="1708" height="24.65"/>
            </clipPath>
<clipPath id="terminal-1351270772-line-8">
    <rect x="0" y="196.7" width="1708" height="24.65"/>
            </clipPath>
<clipPath id="terminal-1351270772-line-9">
    <rect x="0" y="221.1" width="1708" height="24.65"/>
            </clipPath>
<clipPath id="terminal-1351270772-line-10">
    <rect x="0" y="245.5" width="1708" height="24.65"/>
            </clipPath>
<clipPath id="terminal-1351270772-line-11">
    <rect x="0" y="269.9" width="1708" height="24.65"/>
            </clipPath>
<clipPath id="terminal-1351270772-line-12">
    <rect x="0" y="294.3" width="1708" height="24.65"/>
            </clipPath>
<clipPath id="terminal-1351270772-line-13">
    <rect x="0" y="318.7" width="1708" height="24.65"/>
            </clipPath>
<clipPath id="terminal-1351270772-line-14">
    <rect x="0" y="343.1" width="1708" height="24.65"/>
            </clipPath>
<clipPath id="terminal-1351270772-line-15">
    <rect x="0" y="367.5" width="1708" height="24.65"/>
            </clipPath>
<clipPath id="terminal-1351270772-line-16">
    <rect x="0" y="391.9" width="1708" height="24.65"/>
            </clipPath>
<clipPath id="terminal-1351270772-line-17">
    <rect x="0" y="416.3" width="1708" height="24.65"/>
            </clipPath>
<clipPath id="terminal-1351270772-line-18">
    <rect x="0" y="440.7" width="1708" height="24.65"/>
            </clipPath>
<clipPath id="terminal-1351270772-line-19">
    <rect x="0" y="465.1" width="1708" height="24.65"/>
            </clipPath>
<clipPath id="terminal-1351270772-line-20">
    <rect x="0" y="489.5" width="1708" height="24.65"/>
            </clipPath>
<clipPath id="terminal-1351270772-line-21">
    <rect x="0" y="513.9" width="1708" height="24.65"/>
            </clipPath>
<clipPath id="terminal-1351270772-line-22">
    <rect x="0" y="538.3" width="1708" height="24.65"/>
            </clipPath>
<clipPath id="terminal-1351270772-line-23">
    <rect x="0" y="562.7" width="1708" height="24.65"/>
            </clipPath>
<clipPath id="terminal-1351270772-line-24">
    <rect x="0" y="587.1" width="1708" height="24.65"/>
            </clipPath>
<clipPath id="terminal-1351270772-line-25">
    <rect x="0" y="611.5" width="1708" height="24.65"/>
            </clipPath>
<clipPath id="terminal-1351270772-line-26">
    <rect x="0" y="635.9" width="1708" height="24.65"/>
            </clipPath>
<clipPath id="terminal-1351270772-line-27">
    <rect x="0" y="660.3" width="1708" height="24.65"/>
            </clipPath>
<clipPath id="terminal-1351270772-line-28">
    <rect x="0" y="684.7" width="1708" height="24.65"/>
            </clipPath>
<clipPath id="terminal-1351270772-line-29">
    <rect x="0" y="709.1" width="1708" height="24.65"/>
            </clipPath>
<clipPath id="terminal-1351270772-line-30">
    <rect x="0" y="733.5" width="1708" height="24.65"/>
            </clipPath>
<clipPath id="terminal-1351270772-line-31">
    <rect x="0" y="757.9" width="1708" height="24.65"/>
            </clipPath>
<clipPath id="terminal-1351270772-line-32">
    <rect x="0" y="782.3" width="1708" height="24.65"/>
            </clipPath>
<clipPath id="terminal-1351270772-line-33">
    <rect x="0" y="806.7" width="1708" height="24.65"/>
            </clipPath>
<clipPath id="terminal-1351270772-line-34">
    <rect x="0" y="831.1" width="1708" height="24.65"/>
            </clipPath>
<clipPath id="terminal-1351270772-line-35">
    <rect x="0" y="855.5" width="1708" height="24.65"/>
            </clipPath>
<clipPath id="terminal-1351270772-line-36">
    <rect x="0" y="879.9" width="1708" height="24.65"/>
            </clipPath>
    </defs>

    <rect fill="#292929" stroke="rgba(255,255,255,0.35)" stroke-width="1" x="1" y="1" width="1724" height="975.2" rx="8"/><text class="terminal-1351270772-title" fill="#c5c8c6" text-anchor="middle" x="862" y="27">agentseq</text>
            <g transform="translate(26,22)">
            <circle cx="0" cy="0" r="7" fill="#ff5f57"/>
            <circle cx="22" cy="0" r="7" fill="#febc2e"/>
            <circle cx="44" cy="0" r="7" fill="#28c840"/>
            </g>
        
    <g transform="translate(9, 41)" clip-path="url(#terminal-1351270772-clip-terminal)">
    <rect fill="#242f38" x="0" y="1.5" width="12.2" height="24.65" shape-rendering="crispEdges"/><rect fill="#242f38" x="12.2" y="1.5" width="12.2" height="24.65" shape-rendering="crispEdges"/><rect fill="#242f38" x="24.4" y="1.5" width="61" height="24.65" shape-rendering="crispEdges"/><rect fill="#242f38" x="85.4" y="1.5" width="12.2" height="24.65" shape-rendering="crispEdges"/><rect fill="#242f38" x="97.6" y="1.5" width="536.8" height="24.65" shape-rendering="crispEdges"/><rect fill="#242f38" x="634.4" y="1.5" width="97.6" height="24.65" shape-rendering="crispEdges"/><rect fill="#242f38" x="732" y="1.5" width="36.6" height="24.65" shape-rendering="crispEdges"/><rect fill="#242f38" x="768.6" y="1.5" width="268.4" height="24.65" shape-rendering="crispEdges"/><rect fill="#242f38" x="1037" y="1.5" width="549" height="24.65" shape-rendering="crispEdges"/><rect fill="#242f38" x="1586" y="1.5" width="12.2" height="24.65" shape-rendering="crispEdges"/><rect fill="#242f38" x="1598.2" y="1.5" width="0" height="24.65" shape-rendering="crispEdges"/><rect fill="#242f38" x="1598.2" y="1.5" width="97.6" height="24.65" shape-rendering="crispEdges"/><rect fill="#242f38" x="1695.8" y="1.5" width="12.2" height="24.65" shape-rendering="crispEdges"/><rect fill="#1e1e1e" x="0" y="25.9" width="12.2" height="24.65" shape-rendering="crispEdges"/><rect fill="#1e1e1e" x="12.2" y="25.9" width="122" height="24.65" shape-rendering="crispEdges"/><rect fill="#1e1e1e" x="134.2" y="25.9" width="12.2" height="24.65" shape-rendering="crispEdges"/><rect fill="#1e1e1e" x="146.4" y="25.9" width="12.2" height="24.65" shape-rendering="crispEdges"/><rect fill="#1e1e1e" x="158.6" y="25.9" width="146.4" height="24.65" shape-rendering="crispEdges"/><rect fill="#1e1e1e" x="305" y="25.9" width="12.2" height="24.65" shape-rendering="crispEdges"/><rect fill="#1e1e1e" x="317.2" y="25.9" width="12.2" height="24.65" shape-rendering="crispEdges"/><rect fill="#1e1e1e" x="329.4" y="25.9" width="134.2" height="24.65" shape-rendering="crispEdges"/><rect fill="#1e1e1e" x="463.6" y="25.9" width="12.2" height="24.65" shape-rendering="crispEdges"/><rect fill="#1e1e1e" x="475.8" y="25.9" width="12.2" height="24.65" shape-rendering="crispEdges"/><rect fill="#1e1e1e" x="488" y="25.9" width="97.6" height="24.65" shape-rendering="crispEdges"/><rect fill="#1e1e1e" x="585.6" y="25.9" width="12.2" height="24.65" shape-rendering="crispEdges"/><rect fill="#1e1e1e" x="597.8" y="25.9" width="1110.2" height="24.65" shape-rendering="crispEdges"/><rect fill="#1e1e1e" x="0" y="50.3" width="97.6" height="24.65" shape-rendering="crispEdges"/><rect fill="#1e1e1e" x="97.6" y="50.3" width="12.2" height="24.65" shape-rendering="crispEdges"/><rect fill="#1e1e1e" x="109.8" y="50.3" width="134.2" height="24.65" shape-rendering="crispEdges"/><rect fill="#1e1e1e" x="244" y="50.3" width="12.2" height="24.65" shape-rendering="crispEdges"/><rect fill="#1e1e1e" x="256.2" y="50.3" width="1451.8" height="24.65" shape-rendering="crispEdges"/><rect fill="#1e1e1e" x="0" y="74.7" width="1708" height="24.65" shape-rendering="crispEdges"/><rect fill="#1e1e1e" x="0" y="99.1" width="134.2" height="24.65" shape-rendering="crispEdges"/><rect fill="#1e1e1e" x="134.2" y="99.1" width="329.4" height="24.65" shape-rendering="crispEdges"/><rect fill="#1e1e1e" x="463.6" y="99.1" width="1244.4" height="24.65" shape-rendering="crispEdges"/><rect fill="#242f38" x="0" y="123.5" width="97.6" height="24.65" shape-rendering="crispEdges"/><rect fill="#242f38" x="97.6" y="123.5" width="73.2" height="24.65" shape-rendering="crispEdges"/><rect fill="#242f38" x="170.8" y="123.5" width="402.6" height="24.65" shape-rendering="crispEdges"/><rect fill="#242f38" x="573.4" y="123.5" width="439.2" height="24.65" shape-rendering="crispEdges"/><rect fill="#242f38" x="1012.6" y="123.5" width="122" height="24.65" shape-rendering="crispEdges"/><rect fill="#242f38" x="1134.6" y="123.5" width="61" height="24.65" shape-rendering="crispEdges"/><rect fill="#242f38" x="1195.6" y="123.5" width="85.4" height="24.65" shape-rendering="crispEdges"/><rect fill="#242f38" x="1281" y="123.5" width="427" height="24.65" shape-rendering="crispEdges"/><rect fill="#614621" x="0" y="147.9" width="97.6" height="24.65" shape-rendering="crispEdges"/><rect fill="#614621" x="97.6" y="147.9" width="73.2" height="24.65" shape-rendering="crispEdges"/><rect fill="#614621" x="170.8" y="147.9" width="402.6" height="24.65" shape-rendering="crispEdges"/><rect fill="#614621" x="573.4" y="147.9" width="439.2" height="24.65" shape-rendering="crispEdges"/><rect fill="#614621" x="1012.6" y="147.9" width="122" height="24.65" shape-rendering="crispEdges"/><rect fill="#614621" x="1134.6" y="147.9" width="61" height="24.65" shape-rendering="crispEdges"/><rect fill="#614621" x="1195.6" y="147.9" width="85.4" height="24.65" shape-rendering="crispEdges"/><rect fill="#614621" x="1281" y="147.9" width="427" height="24.65" shape-rendering="crispEdges"/><rect fill="#1e1e1e" x="0" y="172.3" width="97.6" height="24.65" shape-rendering="crispEdges"/><rect fill="#1e1e1e" x="97.6" y="172.3" width="73.2" height="24.65" shape-rendering="crispEdges"/><rect fill="#1e1e1e" x="170.8" y="172.3" width="402.6" height="24.65" shape-rendering="crispEdges"/><rect fill="#1e1e1e" x="573.4" y="172.3" width="439.2" height="24.65" shape-rendering="crispEdges"/><rect fill="#1e1e1e" x="1012.6" y="172.3" width="122" height="24.65" shape-rendering="crispEdges"/><rect fill="#1e1e1e" x="1134.6" y="172.3" width="61" height="24.65" shape-rendering="crispEdges"/><rect fill="#1e1e1e" x="1195.6" y="172.3" width="85.4" height="24.65" shape-rendering="crispEdges"/><rect fill="#1e1e1e" x="1281" y="172.3" width="427" height="24.65" shape-rendering="crispEdges"/><rect fill="#171717" x="0" y="196.7" width="97.6" height="24.65" shape-rendering="crispEdges"/><rect fill="#171717" x="97.6" y="196.7" width="73.2" height="24.65" shape-rendering="crispEdges"/><rect fill="#171717" x="170.8" y="196.7" width="402.6" height="24.65" shape-rendering="crispEdges"/><rect fill="#171717" x="573.4" y="196.7" width="439.2" height="24.65" shape-rendering="crispEdges"/><rect fill="#171717" x="1012.6" y="196.7" width="122" height="24.65" shape-rendering="crispEdges"/><rect fill="#171717" x="1134.6" y="196.7" width="61" height="24.65" shape-rendering="crispEdges"/><rect fill="#171717" x="1195.6" y="196.7" width="85.4" height="24.65" shape-rendering="crispEdges"/><rect fill="#171717" x="1281" y="196.7" width="427" height="24.65" shape-rendering="crispEdges"/><rect fill="#1e1e1e" x="0" y="221.1" width="97.6" height="24.65" shape-rendering="crispEdges"/><rect fill="#1e1e1e" x="97.6" y="221.1" width="73.2" height="24.65" shape-rendering="crispEdges"/><rect fill="#1e1e1e" x="170.8" y="221.1" width="402.6" height="24.65" shape-rendering="crispEdges"/><rect fill="#1e1e1e" x="573.4" y="221.1" width="439.2" height="24.65" shape-rendering="crispEdges"/><rect fill="#1e1e1e" x="1012.6" y="221.1" width="122" height="24.65" shape-rendering="crispEdges"/><rect fill="#1e1e1e" x="1134.6" y="221.1" width="61" height="24.65" shape-rendering="crispEdges"/><rect fill="#1e1e1e" x="1195.6" y="221.1" width="85.4" height="24.65" shape-rendering="crispEdges"/><rect fill="#1e1e1e" x="1281" y="221.1" width="427" height="24.65" shape-rendering="crispEdges"/><rect fill="#171717" x="0" y="245.5" width="97.6" height="24.65" shape-rendering="crispEdges"/><rect fill="#171717" x="97.6" y="245.5" width="73.2" height="24.65" shape-rendering="crispEdges"/><rect fill="#171717" x="170.8" y="245.5" width="402.6" height="24.65" shape-rendering="crispEdges"/><rect fill="#171717" x="573.4" y="245.5" width="439.2" height="24.65" shape-rendering="crispEdges"/><rect fill="#171717" x="1012.6" y="245.5" width="122" height="24.65" shape-rendering="crispEdges"/><rect fill="#171717" x="1134.6" y="245.5" width="61" height="24.65" shape-rendering="crispEdges"/><rect fill="#171717" x="1195.6" y="245.5" width="85.4" height="24.65" shape-rendering="crispEdges"/><rect fill="#171717" x="1281" y="245.5" width="427" height="24.65" shape-rendering="crispEdges"/><rect fill="#1e1e1e" x="0" y="269.9" width="1708" height="24.65" shape-rendering="crispEdges"/><rect fill="#1e1e1e" x="0" y="294.3" width="1708" height="24.65" shape-rendering="crispEdges"/><rect fill="#1e1e1e" x="0" y="318.7" width="1708" height="24.65" shape-rendering="crispEdges"/><rect fill="#1e1e1e" x="0" y="343.1" width="1708" height="24.65" shape-rendering="crispEdges"/><rect fill="#1e1e1e" x="0" y="367.5" width="1708" height="24.65" shape-rendering="crispEdges"/><rect fill="#1e1e1e" x="0" y="391.9" width="1708" height="24.65" shape-rendering="crispEdges"/><rect fill="#1e1e1e" x="0" y="416.3" width="1708" height="24.65" shape-rendering="crispEdges"/><rect fill="#1e1e1e" x="0" y="440.7" width="1708" height="24.65" shape-rendering="crispEdges"/><rect fill="#1e1e1e" x="0" y="465.1" width="1708" height="24.65" shape-rendering="crispEdges"/><rect fill="#1e1e1e" x="0" y="489.5" width="1708" height="24.65" shape-rendering="crispEdges"/><rect fill="#1e1e1e" x="0" y="513.9" width="1708" height="24.65" shape-rendering="crispEdges"/><rect fill="#1e1e1e" x="0" y="538.3" width="1708" height="24.65" shape-rendering="crispEdges"/><rect fill="#1e1e1e" x="0" y="562.7" width="1708" height="24.65" shape-rendering="crispEdges"/><rect fill="#1e1e1e" x="0" y="587.1" width="1708" height="24.65" shape-rendering="crispEdges"/><rect fill="#1e1e1e" x="0" y="611.5" width="1708" height="24.65" shape-rendering="crispEdges"/><rect fill="#1e1e1e" x="0" y="635.9" width="1708" height="24.65" shape-rendering="crispEdges"/><rect fill="#1e1e1e" x="0" y="660.3" width="1708" height="24.65" shape-rendering="crispEdges"/><rect fill="#1e1e1e" x="0" y="684.7" width="1708" height="24.65" shape-rendering="crispEdges"/><rect fill="#1e1e1e" x="0" y="709.1" width="1708" height="24.65" shape-rendering="crispEdges"/><rect fill="#1e1e1e" x="0" y="733.5" width="1708" height="24.65" shape-rendering="crispEdges"/><rect fill="#1e1e1e" x="0" y="757.9" width="1708" height="24.65" shape-rendering="crispEdges"/><rect fill="#1e1e1e" x="0" y="782.3" width="1708" height="24.65" shape-rendering="crispEdges"/><rect fill="#1e1e1e" x="0" y="806.7" width="1708" height="24.65" shape-rendering="crispEdges"/><rect fill="#1e1e1e" x="0" y="831.1" width="1708" height="24.65" shape-rendering="crispEdges"/><rect fill="#1e1e1e" x="0" y="855.5" width="1708" height="24.65" shape-rendering="crispEdges"/><rect fill="#1e1e1e" x="0" y="879.9" width="1708" height="24.65" shape-rendering="crispEdges"/><rect fill="#242f38" x="0" y="904.3" width="36.6" height="24.65" shape-rendering="crispEdges"/><rect fill="#242f38" x="36.6" y="904.3" width="85.4" height="24.65" shape-rendering="crispEdges"/><rect fill="#242f38" x="122" y="904.3" width="36.6" height="24.65" shape-rendering="crispEdges"/><rect fill="#242f38" x="158.6" y="904.3" width="109.8" height="24.65" shape-rendering="crispEdges"/><rect fill="#242f38" x="268.4" y="904.3" width="36.6" height="24.65" shape-rendering="crispEdges"/><rect fill="#242f38" x="305" y="904.3" width="97.6" height="24.65" shape-rendering="crispEdges"/><rect fill="#242f38" x="402.6" y="904.3" width="36.6" height="24.65" shape-rendering="crispEdges"/><rect fill="#242f38" x="439.2" y="904.3" width="61" height="24.65" shape-rendering="crispEdges"/><rect fill="#242f38" x="500.2" y="904.3" width="36.6" height="24.65" shape-rendering="crispEdges"/><rect fill="#242f38" x="536.8" y="904.3" width="61" height="24.65" shape-rendering="crispEdges"/><rect fill="#242f38" x="597.8" y="904.3" width="36.6" height="24.65" shape-rendering="crispEdges"/><rect fill="#242f38" x="634.4" y="904.3" width="61" height="24.65" shape-rendering="crispEdges"/><rect fill="#242f38" x="695.4" y="904.3" width="866.2" height="24.65" shape-rendering="crispEdges"/><rect fill="#242f38" x="1561.6" y="904.3" width="12.2" height="24.65" shape-rendering="crispEdges"/><rect fill="#242f38" x="1573.8" y="904.3" width="24.4" height="24.65" shape-rendering="crispEdges"/><rect fill="#242f38" x="1598.2" y="904.3" width="97.6" height="24.65" shape-rendering="crispEdges"/><rect fill="#242f38" x="1695.8" y="904.3" width="12.2" height="24.65" shape-rendering="crispEdges"/>
    <g class="terminal-1351270772-matrix">
    <text class="terminal-1351270772-r2" x="12.2" y="20" textLength="12.2" clip-path="url(#terminal-1351270772-line-0)">⭘</text><text class="terminal-1351270772-r2" x="634.4" y="20" textLength="97.6" clip-path="url(#terminal-1351270772-line-0)">agentseq</text><text class="terminal-1351270772-r3" x="732" y="20" textLength="36.6" clip-path="url(#terminal-1351270772-line-0)">&#160;—&#160;</text><text class="terminal-1351270772-r3" x="768.6" y="20" textLength="268.4" clip-path="url(#terminal-1351270772-line-0)">Claude&#160;session&#160;monitor</text><text class="terminal-1351270772-r1" x="1708" y="20" textLength="12.2" clip-path="url(#terminal-1351270772-line-0)">
</text><text class="terminal-1351270772-r2" x="12.2" y="44.4" textLength="122" clip-path="url(#terminal-1351270772-line-1)">Agents&#160;[1]</text><text class="terminal-1351270772-r4" x="158.6" y="44.4" textLength="146.4" clip-path="url(#terminal-1351270772-line-1)">Sessions&#160;[2]</text><text class="terminal-1351270772-r4" x="329.4" y="44.4" textLength="134.2" clip-path="url(#terminal-1351270772-line-1)">Combine&#160;[3]</text><text class="terminal-1351270772-r4" x="488" y="44.4" textLength="97.6" clip-path="url(#terminal-1351270772-line-1)">Jobs&#160;[4]</text><text class="terminal-1351270772-r1" x="1708" y="44.4" textLength="12.2" clip-path="url(#terminal-1351270772-line-1)">
</text><text class="terminal-1351270772-r5" x="0" y="68.8" textLength="97.6" clip-path="url(#terminal-1351270772-line-2)">━━━━━━━━</text><text class="terminal-1351270772-r5" x="97.6" y="68.8" textLength="12.2" clip-path="url(#terminal-1351270772-line-2)">╸</text><text class="terminal-1351270772-r6" x="109.8" y="68.8" textLength="134.2" clip-path="url(#terminal-1351270772-line-2)">━━━━━━━━━━━</text><text class="terminal-1351270772-r5" x="244" y="68.8" textLength="12.2" clip-path="url(#terminal-1351270772-line-2)">╺</text><text class="terminal-1351270772-r5" x="256.2" y="68.8" textLength="1451.8" clip-path="url(#terminal-1351270772-line-2)">━━━━━━━━━━━━━━━━━━━━━━━━━━━━━━━━━━━━━━━━━━━━━━━━━━━━━━━━━━━━━━━━━━━━━━━━━━━━━━━━━━━━━━━━━━━━━━━━━━━━━━━━━━━━━━━━━━━━━━━</text><text class="terminal-1351270772-r1" x="1708" y="68.8" textLength="12.2" clip-path="url(#terminal-1351270772-line-2)">
</text><text class="terminal-1351270772-r1" x="1708" y="93.2" textLength="12.2" clip-path="url(#terminal-1351270772-line-3)">
</text><text class="terminal-1351270772-r7" x="0" y="117.6" textLength="134.2" clip-path="url(#terminal-1351270772-line-4)">Live&#160;Agents</text><text class="terminal-1351270772-r7" x="134.2" y="117.6" textLength="329.4" clip-path="url(#terminal-1351270772-line-4)">&#160;&#160;(auto-refreshes&#160;every&#160;3s)</text><text class="terminal-1351270772-r1" x="1708" y="117.6" textLength="12.2" clip-path="url(#terminal-1351270772-line-4)">
</text><text class="terminal-1351270772-r8" x="0" y="142" textLength="97.6" clip-path="url(#terminal-1351270772-line-5)">&#160;Status&#160;</text><text class="terminal-1351270772-r8" x="97.6" y="142" textLength="73.2" clip-path="url(#terminal-1351270772-line-5)">&#160;Kind&#160;</text><text class="terminal-1351270772-r8" x="170.8" y="142" textLength="402.6" clip-path="url(#terminal-1351270772-line-5)">&#160;Name&#160;&#160;&#160;&#160;&#160;&#160;&#160;&#160;&#160;&#160;&#160;&#160;&#160;&#160;&#160;&#160;&#160;&#160;&#160;&#160;&#160;&#160;&#160;&#160;&#160;&#160;&#160;&#160;</text><text class="terminal-1351270772-r8" x="573.4" y="142" textLength="439.2" clip-path="url(#terminal-1351270772-line-5)">&#160;CWD&#160;&#160;&#160;&#160;&#160;&#160;&#160;&#160;&#160;&#160;&#160;&#160;&#160;&#160;&#160;&#160;&#160;&#160;&#160;&#160;&#160;&#160;&#160;&#160;&#160;&#160;&#160;&#160;&#160;&#160;&#160;&#160;</text><text class="terminal-1351270772-r8" x="1012.6" y="142" textLength="122" clip-path="url(#terminal-1351270772-line-5)">&#160;Session&#160;&#160;</text><text class="terminal-1351270772-r8" x="1134.6" y="142" textLength="61" clip-path="url(#terminal-1351270772-line-5)">&#160;Age&#160;</text><text class="terminal-1351270772-r8" x="1195.6" y="142" textLength="85.4" clip-path="url(#terminal-1351270772-line-5)">&#160;PID&#160;&#160;&#160;</text><text class="terminal-1351270772-r1" x="1708" y="142" textLength="12.2" clip-path="url(#terminal-1351270772-line-5)">
</text><text class="terminal-1351270772-r2" x="0" y="166.4" textLength="97.6" clip-path="url(#terminal-1351270772-line-6)">&#160;●&#160;busy&#160;</text><text class="terminal-1351270772-r2" x="97.6" y="166.4" textLength="73.2" clip-path="url(#terminal-1351270772-line-6)">&#160;int&#160;&#160;</text><text class="terminal-1351270772-r2" x="170.8" y="166.4" textLength="402.6" clip-path="url(#terminal-1351270772-line-6)">&#160;&#160;&#160;polish&#160;TUI&#160;and&#160;update&#160;README&#160;&#160;</text><text class="terminal-1351270772-r2" x="573.4" y="166.4" textLength="439.2" clip-path="url(#terminal-1351270772-line-6)">&#160;~/Developer/proj/claude-sessions&#160;&#160;&#160;</text><text class="terminal-1351270772-r2" x="1012.6" y="166.4" textLength="122" clip-path="url(#terminal-1351270772-line-6)">&#160;a1b2c3d4&#160;</text><text class="terminal-1351270772-r2" x="1134.6" y="166.4" textLength="61" clip-path="url(#terminal-1351270772-line-6)">&#160;3m&#160;&#160;</text><text class="terminal-1351270772-r2" x="1195.6" y="166.4" textLength="85.4" clip-path="url(#terminal-1351270772-line-6)">&#160;42891&#160;</text><text class="terminal-1351270772-r1" x="1708" y="166.4" textLength="12.2" clip-path="url(#terminal-1351270772-line-6)">
</text><text class="terminal-1351270772-r2" x="0" y="190.8" textLength="97.6" clip-path="url(#terminal-1351270772-line-7)">&#160;○&#160;idle&#160;</text><text class="terminal-1351270772-r2" x="97.6" y="190.8" textLength="73.2" clip-path="url(#terminal-1351270772-line-7)">&#160;int&#160;&#160;</text><text class="terminal-1351270772-r2" x="170.8" y="190.8" textLength="402.6" clip-path="url(#terminal-1351270772-line-7)">&#160;&#160;&#160;fix&#160;WebSocket&#160;reconnect&#160;logic&#160;</text><text class="terminal-1351270772-r2" x="573.4" y="190.8" textLength="439.2" clip-path="url(#terminal-1351270772-line-7)">&#160;~/Developer/proj/agent-observatory&#160;</text><text class="terminal-1351270772-r2" x="1012.6" y="190.8" textLength="122" clip-path="url(#terminal-1351270772-line-7)">&#160;b2c3d4e5&#160;</text><text class="terminal-1351270772-r2" x="1134.6" y="190.8" textLength="61" clip-path="url(#terminal-1351270772-line-7)">&#160;20m&#160;</text><text class="terminal-1351270772-r2" x="1195.6" y="190.8" textLength="85.4" clip-path="url(#terminal-1351270772-line-7)">&#160;42750&#160;</text><text class="terminal-1351270772-r1" x="1708" y="190.8" textLength="12.2" clip-path="url(#terminal-1351270772-line-7)">
</text><text class="terminal-1351270772-r2" x="0" y="215.2" textLength="97.6" clip-path="url(#terminal-1351270772-line-8)">&#160;●&#160;busy&#160;</text><text class="terminal-1351270772-r2" x="97.6" y="215.2" textLength="73.2" clip-path="url(#terminal-1351270772-line-8)">&#160;bg&#160;&#160;&#160;</text><text class="terminal-1351270772-r2" x="170.8" y="215.2" textLength="402.6" clip-path="url(#terminal-1351270772-line-8)">&#160;&#160;&#160;sync&#160;Todoist&#160;labels&#160;&#160;&#160;&#160;&#160;&#160;&#160;&#160;&#160;&#160;&#160;</text><text class="terminal-1351270772-r2" x="573.4" y="215.2" textLength="439.2" clip-path="url(#terminal-1351270772-line-8)">&#160;~/Developer/proj/todo&#160;&#160;&#160;&#160;&#160;&#160;&#160;&#160;&#160;&#160;&#160;&#160;&#160;&#160;</text><text class="terminal-1351270772-r2" x="1012.6" y="215.2" textLength="122" clip-path="url(#terminal-1351270772-line-8)">&#160;c3d4e5f6&#160;</text><text class="terminal-1351270772-r2" x="1134.6" y="215.2" textLength="61" clip-path="url(#terminal-1351270772-line-8)">&#160;10m&#160;</text><text class="terminal-1351270772-r2" x="1195.6" y="215.2" textLength="85.4" clip-path="url(#terminal-1351270772-line-8)">&#160;43102&#160;</text><text class="terminal-1351270772-r1" x="1708" y="215.2" textLength="12.2" clip-path="url(#terminal-1351270772-line-8)">
</text><text class="terminal-1351270772-r2" x="0" y="239.6" textLength="97.6" clip-path="url(#terminal-1351270772-line-9)">&#160;○&#160;idle&#160;</text><text class="terminal-1351270772-r2" x="97.6" y="239.6" textLength="73.2" clip-path="url(#terminal-1351270772-line-9)">&#160;int&#160;&#160;</text><text class="terminal-1351270772-r2" x="170.8" y="239.6" textLength="402.6" clip-path="url(#terminal-1351270772-line-9)">&#160;&#160;&#160;tailor&#160;resume&#160;for&#160;Anthropic&#160;&#160;&#160;</text><text class="terminal-1351270772-r2" x="573.4" y="239.6" textLength="439.2" clip-path="url(#terminal-1351270772-line-9)">&#160;~/Developer/proj/employment&#160;&#160;&#160;&#160;&#160;&#160;&#160;&#160;</text><text class="terminal-1351270772-r2" x="1012.6" y="239.6" textLength="122" clip-path="url(#terminal-1351270772-line-9)">&#160;d4e5f6a7&#160;</text><text class="terminal-1351270772-r2" x="1134.6" y="239.6" textLength="61" clip-path="url(#terminal-1351270772-line-9)">&#160;1h&#160;&#160;</text><text class="terminal-1351270772-r2" x="1195.6" y="239.6" textLength="85.4" clip-path="url(#terminal-1351270772-line-9)">&#160;42500&#160;</text><text class="terminal-1351270772-r1" x="1708" y="239.6" textLength="12.2" clip-path="url(#terminal-1351270772-line-9)">
</text><text class="terminal-1351270772-r2" x="0" y="264" textLength="97.6" clip-path="url(#terminal-1351270772-line-10)">&#160;●&#160;busy&#160;</text><text class="terminal-1351270772-r2" x="97.6" y="264" textLength="73.2" clip-path="url(#terminal-1351270772-line-10)">&#160;bg&#160;&#160;&#160;</text><text class="terminal-1351270772-r2" x="170.8" y="264" textLength="402.6" clip-path="url(#terminal-1351270772-line-10)">&#160;&#160;&#160;run&#160;test&#160;suite&#160;&#160;&#160;&#160;&#160;&#160;&#160;&#160;&#160;&#160;&#160;&#160;&#160;&#160;&#160;&#160;</text><text class="terminal-1351270772-r2" x="573.4" y="264" textLength="439.2" clip-path="url(#terminal-1351270772-line-10)">&#160;~/bin&#160;&#160;&#160;&#160;&#160;&#160;&#160;&#160;&#160;&#160;&#160;&#160;&#160;&#160;&#160;&#160;&#160;&#160;&#160;&#160;&#160;&#160;&#160;&#160;&#160;&#160;&#160;&#160;&#160;&#160;</text><text class="terminal-1351270772-r2" x="1012.6" y="264" textLength="122" clip-path="url(#terminal-1351270772-line-10)">&#160;e5f6a7b8&#160;</text><text class="terminal-1351270772-r2" x="1134.6" y="264" textLength="61" clip-path="url(#terminal-1351270772-line-10)">&#160;45s&#160;</text><text class="terminal-1351270772-r2" x="1195.6" y="264" textLength="85.4" clip-path="url(#terminal-1351270772-line-10)">&#160;43200&#160;</text><text class="terminal-1351270772-r1" x="1708" y="264" textLength="12.2" clip-path="url(#terminal-1351270772-line-10)">
</text><text class="terminal-1351270772-r1" x="1708" y="288.4" textLength="12.2" clip-path="url(#terminal-1351270772-line-11)">
</text><text class="terminal-1351270772-r1" x="1708" y="312.8" textLength="12.2" clip-path="url(#terminal-1351270772-line-12)">
</text><text class="terminal-1351270772-r1" x="1708" y="337.2" textLength="12.2" clip-path="url(#terminal-1351270772-line-13)">
</text><text class="terminal-1351270772-r1" x="1708" y="361.6" textLength="12.2" clip-path="url(#terminal-1351270772-line-14)">
</text><text class="terminal-1351270772-r1" x="1708" y="386" textLength="12.2" clip-path="url(#terminal-1351270772-line-15)">
</text><text class="terminal-1351270772-r1" x="1708" y="410.4" textLength="12.2" clip-path="url(#terminal-1351270772-line-16)">
</text><text class="terminal-1351270772-r1" x="1708" y="434.8" textLength="12.2" clip-path="url(#terminal-1351270772-line-17)">
</text><text class="terminal-1351270772-r1" x="1708" y="459.2" textLength="12.2" clip-path="url(#terminal-1351270772-line-18)">
</text><text class="terminal-1351270772-r1" x="1708" y="483.6" textLength="12.2" clip-path="url(#terminal-1351270772-line-19)">
</text><text class="terminal-1351270772-r1" x="1708" y="508" textLength="12.2" clip-path="url(#terminal-1351270772-line-20)">
</text><text class="terminal-1351270772-r1" x="1708" y="532.4" textLength="12.2" clip-path="url(#terminal-1351270772-line-21)">
</text><text class="terminal-1351270772-r1" x="1708" y="556.8" textLength="12.2" clip-path="url(#terminal-1351270772-line-22)">
</text><text class="terminal-1351270772-r1" x="1708" y="581.2" textLength="12.2" clip-path="url(#terminal-1351270772-line-23)">
</text><text class="terminal-1351270772-r1" x="1708" y="605.6" textLength="12.2" clip-path="url(#terminal-1351270772-line-24)">
</text><text class="terminal-1351270772-r1" x="1708" y="630" textLength="12.2" clip-path="url(#terminal-1351270772-line-25)">
</text><text class="terminal-1351270772-r1" x="1708" y="654.4" textLength="12.2" clip-path="url(#terminal-1351270772-line-26)">
</text><text class="terminal-1351270772-r1" x="1708" y="678.8" textLength="12.2" clip-path="url(#terminal-1351270772-line-27)">
</text><text class="terminal-1351270772-r1" x="1708" y="703.2" textLength="12.2" clip-path="url(#terminal-1351270772-line-28)">
</text><text class="terminal-1351270772-r1" x="1708" y="727.6" textLength="12.2" clip-path="url(#terminal-1351270772-line-29)">
</text><text class="terminal-1351270772-r1" x="1708" y="752" textLength="12.2" clip-path="url(#terminal-1351270772-line-30)">
</text><text class="terminal-1351270772-r1" x="1708" y="776.4" textLength="12.2" clip-path="url(#terminal-1351270772-line-31)">
</text><text class="terminal-1351270772-r1" x="1708" y="800.8" textLength="12.2" clip-path="url(#terminal-1351270772-line-32)">
</text><text class="terminal-1351270772-r1" x="1708" y="825.2" textLength="12.2" clip-path="url(#terminal-1351270772-line-33)">
</text><text class="terminal-1351270772-r1" x="1708" y="849.6" textLength="12.2" clip-path="url(#terminal-1351270772-line-34)">
</text><text class="terminal-1351270772-r1" x="1708" y="874" textLength="12.2" clip-path="url(#terminal-1351270772-line-35)">
</text><text class="terminal-1351270772-r1" x="1708" y="898.4" textLength="12.2" clip-path="url(#terminal-1351270772-line-36)">
</text><text class="terminal-1351270772-r9" x="0" y="922.8" textLength="36.6" clip-path="url(#terminal-1351270772-line-37)">&#160;1&#160;</text><text class="terminal-1351270772-r2" x="36.6" y="922.8" textLength="85.4" clip-path="url(#terminal-1351270772-line-37)">Agents&#160;</text><text class="terminal-1351270772-r9" x="122" y="922.8" textLength="36.6" clip-path="url(#terminal-1351270772-line-37)">&#160;2&#160;</text><text class="terminal-1351270772-r2" x="158.6" y="922.8" textLength="109.8" clip-path="url(#terminal-1351270772-line-37)">Sessions&#160;</text><text class="terminal-1351270772-r9" x="268.4" y="922.8" textLength="36.6" clip-path="url(#terminal-1351270772-line-37)">&#160;3&#160;</text><text class="terminal-1351270772-r2" x="305" y="922.8" textLength="97.6" clip-path="url(#terminal-1351270772-line-37)">Combine&#160;</text><text class="terminal-1351270772-r9" x="402.6" y="922.8" textLength="36.6" clip-path="url(#terminal-1351270772-line-37)">&#160;4&#160;</text><text class="terminal-1351270772-r2" x="439.2" y="922.8" textLength="61" clip-path="url(#terminal-1351270772-line-37)">Jobs&#160;</text><text class="terminal-1351270772-r9" x="500.2" y="922.8" textLength="36.6" clip-path="url(#terminal-1351270772-line-37)">&#160;q&#160;</text><text class="terminal-1351270772-r2" x="536.8" y="922.8" textLength="61" clip-path="url(#terminal-1351270772-line-37)">Quit&#160;</text><text class="terminal-1351270772-r9" x="597.8" y="922.8" textLength="36.6" clip-path="url(#terminal-1351270772-line-37)">&#160;?&#160;</text><text class="terminal-1351270772-r2" x="634.4" y="922.8" textLength="61" clip-path="url(#terminal-1351270772-line-37)">Help&#160;</text><text class="terminal-1351270772-r10" x="1561.6" y="922.8" textLength="12.2" clip-path="url(#terminal-1351270772-line-37)">▏</text><text class="terminal-1351270772-r9" x="1573.8" y="922.8" textLength="24.4" clip-path="url(#terminal-1351270772-line-37)">^p</text><text class="terminal-1351270772-r2" x="1598.2" y="922.8" textLength="97.6" clip-path="url(#terminal-1351270772-line-37)">&#160;palette</text>
    </g>
    </g>
</svg>
